<svg width="20" height="21" viewBox="0 0 20 21" fill="none" xmlns="http://www.w3.org/2000/svg">
<path fill-rule="evenodd" clip-rule="evenodd" d="M6.26686 3.59506C6.91012 3.5437 7.52077 3.29069 8.01186 2.87206C8.56652 2.39965 9.27129 2.1402 9.99986 2.1402C10.7284 2.1402 11.4332 2.39965 11.9879 2.87206C12.4789 3.29069 13.0896 3.5437 13.7329 3.59506C14.4593 3.65311 15.1413 3.96802 15.6566 4.48332C16.1719 4.99863 16.4868 5.68063 16.5449 6.40706C16.5959 7.05006 16.8489 7.66106 17.2679 8.15206C17.7403 8.70672 17.9997 9.41148 17.9997 10.1401C17.9997 10.8686 17.7403 11.5734 17.2679 12.1281C16.8492 12.6191 16.5962 13.2298 16.5449 13.8731C16.4868 14.5995 16.1719 15.2815 15.6566 15.7968C15.1413 16.3121 14.4593 16.627 13.7329 16.6851C13.0896 16.7364 12.4789 16.9894 11.9879 17.4081C11.4332 17.8805 10.7284 18.1399 9.99986 18.1399C9.27129 18.1399 8.56652 17.8805 8.01186 17.4081C7.52077 16.9894 6.91012 16.7364 6.26686 16.6851C5.54043 16.627 4.85843 16.3121 4.34313 15.7968C3.82782 15.2815 3.51292 14.5995 3.45486 13.8731C3.4035 13.2298 3.15049 12.6191 2.73186 12.1281C2.25945 11.5734 2 10.8686 2 10.1401C2 9.41148 2.25945 8.70672 2.73186 8.15206C3.15049 7.66097 3.4035 7.05032 3.45486 6.40706C3.51292 5.68063 3.82782 4.99863 4.34313 4.48332C4.85843 3.96802 5.54043 3.65311 6.26686 3.59506ZM13.7069 8.84706C13.889 8.65846 13.9898 8.40585 13.9875 8.14366C13.9853 7.88146 13.8801 7.63065 13.6947 7.44524C13.5093 7.25983 13.2585 7.15466 12.9963 7.15238C12.7341 7.1501 12.4815 7.2509 12.2929 7.43306L8.99986 10.7261L7.70686 9.43306C7.51826 9.2509 7.26565 9.15011 7.00346 9.15238C6.74126 9.15466 6.49045 9.25983 6.30504 9.44524C6.11963 9.63065 6.01446 9.88146 6.01219 10.1437C6.00991 10.4059 6.1107 10.6585 6.29286 10.8471L8.29286 12.8471C8.48039 13.0345 8.7347 13.1398 8.99986 13.1398C9.26502 13.1398 9.51933 13.0345 9.70686 12.8471L13.7069 8.84706Z" fill="#019877"/>
</svg>
