<svg width="20" height="20" viewBox="0 0 20 20" fill="none" xmlns="http://www.w3.org/2000/svg">
<g id="credit-card">
<path id="credit-card_2" d="M15.6846 2.90045L16.0859 2.91315C16.9957 2.97591 17.716 3.25877 18.2256 3.7608C18.8083 4.33488 19.0996 5.18082 19.0996 6.26666V13.7335C19.0996 14.8193 18.8083 15.6652 18.2256 16.2393C17.6432 16.8131 16.7855 17.0996 15.6846 17.0997H4.31543C3.21447 17.0996 2.35682 16.8131 1.77441 16.2393C1.1917 15.6652 0.900402 14.8193 0.900391 13.7335V6.26666C0.900402 5.18082 1.1917 4.33488 1.77441 3.7608C2.35682 3.18706 3.21447 2.90051 4.31543 2.90045H15.6846ZM2.04785 13.7335C2.04786 14.5274 2.22765 15.0788 2.58789 15.4337C2.94841 15.7888 3.50885 15.9668 4.31543 15.9669H15.6846C16.4912 15.9668 17.0516 15.7888 17.4121 15.4337C17.7723 15.0788 17.9521 14.5274 17.9521 13.7335V8.70026H2.04785V13.7335ZM8.10547 12.2335C8.4206 12.2336 8.6786 12.4858 8.67871 12.7999C8.67871 13.114 8.42067 13.3662 8.10547 13.3663H5.2627C4.94762 13.366 4.68945 13.1139 4.68945 12.7999C4.68956 12.4859 4.94768 12.2337 5.2627 12.2335H8.10547ZM4.31543 4.03326C3.50885 4.03332 2.94841 4.21131 2.58789 4.56647C2.22765 4.92137 2.04786 5.47272 2.04785 6.26666V7.56647H17.9521V6.26666C17.9521 5.47272 17.7723 4.92137 17.4121 4.56647C17.0516 4.21131 16.4912 4.03332 15.6846 4.03326H4.31543Z" fill="white" stroke="white" stroke-width="0.2"/>
</g>
</svg>
