<svg width="20" height="20" viewBox="0 0 20 20" fill="none" xmlns="http://www.w3.org/2000/svg">
<g clip-path="url(#clip0_5311_3439)">
<path d="M0.625 3.52576H10.1408C10.4276 4.83119 11.5934 5.81122 12.9837 5.81122C14.374 5.81122 15.5398 4.83122 15.8266 3.52576H19.375C19.7202 3.52576 20 3.24591 20 2.90076C20 2.5556 19.7202 2.27576 19.375 2.27576H15.8263C15.5389 0.97099 14.3716 -0.00967407 12.9837 -0.00967407C11.5951 -0.00967407 10.4283 0.970834 10.1411 2.27576H0.625C0.279844 2.27576 0 2.5556 0 2.90076C0 3.24591 0.279844 3.52576 0.625 3.52576ZM11.3233 2.9024L11.3234 2.89568C11.3261 1.9829 12.0709 1.24037 12.9837 1.24037C13.8952 1.24037 14.6401 1.98189 14.644 2.89423L14.6441 2.90341C14.6427 3.81775 13.8984 4.56126 12.9837 4.56126C12.0694 4.56126 11.3254 3.81849 11.3233 2.9047L11.3233 2.9024ZM19.375 16.4742H15.8263C15.5389 15.1695 14.3716 14.1888 12.9837 14.1888C11.5951 14.1888 10.4283 15.1693 10.1411 16.4742H0.625C0.279844 16.4742 0 16.754 0 17.0992C0 17.4444 0.279844 17.7242 0.625 17.7242H10.1408C10.4276 19.0297 11.5934 20.0097 12.9837 20.0097C14.374 20.0097 15.5398 19.0297 15.8266 17.7242H19.375C19.7202 17.7242 20 17.4444 20 17.0992C20 16.754 19.7202 16.4742 19.375 16.4742ZM12.9837 18.7597C12.0694 18.7597 11.3254 18.0169 11.3233 17.1031L11.3233 17.1009L11.3234 17.0942C11.3261 16.1814 12.0709 15.4388 12.9837 15.4388C13.8952 15.4388 14.6401 16.1803 14.644 17.0926L14.6441 17.1018C14.6428 18.0163 13.8985 18.7597 12.9837 18.7597ZM19.375 9.37501H9.85918C9.57238 8.06958 8.4066 7.08958 7.01629 7.08958C5.62598 7.08958 4.4602 8.06958 4.1734 9.37501H0.625C0.279844 9.37501 0 9.65486 0 10C0 10.3452 0.279844 10.625 0.625 10.625H4.17371C4.46109 11.9297 5.62844 12.9104 7.01629 12.9104C8.40488 12.9104 9.57172 11.9299 9.85895 10.625H19.375C19.7202 10.625 20 10.3452 20 10C20 9.65486 19.7202 9.37501 19.375 9.37501ZM8.67668 9.99837L8.67664 10.0051C8.67391 10.9179 7.9291 11.6604 7.01629 11.6604C6.10477 11.6604 5.35992 10.9189 5.35598 10.0066L5.35586 9.99744C5.35723 9.08298 6.10156 8.33958 7.01629 8.33958C7.93059 8.33958 8.67465 9.08232 8.67672 9.99615L8.67668 9.99837Z" fill="white"/>
</g>
<defs>
<clipPath id="clip0_5311_3439">
<rect width="20" height="20" fill="white"/>
</clipPath>
</defs>
</svg>
