<svg width="20" height="20" viewBox="0 0 20 20" fill="none" xmlns="http://www.w3.org/2000/svg">
<g id="Frame" clip-path="url(#clip0_5311_3018)">
<g id="Group">
<path id="Vector" d="M17.1763 6.07491H11.9406V2.34022C11.942 2.04218 11.8838 1.74687 11.7696 1.47159C11.6553 1.19631 11.4873 0.9466 11.2753 0.737095C11.0653 0.525678 10.8155 0.358015 10.5402 0.243813C10.265 0.129611 9.96986 0.0711394 9.67188 0.0717826H2.47187C1.22094 0.0717826 0.203125 1.0896 0.203125 2.34053V7.14053C0.203125 8.39147 1.22094 9.40928 2.47187 9.40928H2.60313V10.7405C2.60313 11.1787 2.86469 11.5677 3.26906 11.7315C3.39937 11.784 3.53469 11.8096 3.66875 11.8096C3.94875 11.8096 4.22156 11.6987 4.42125 11.4915L5.94562 9.97553V14.4358C5.94562 15.8812 7.12156 17.0571 8.56688 17.0571H12.3766L14.9025 19.5693C15.0651 19.738 15.2745 19.8541 15.5037 19.9026C15.7329 19.9512 15.9714 19.93 16.1884 19.8418C16.4076 19.7533 16.5952 19.601 16.7269 19.4048C16.8586 19.2085 16.9284 18.9772 16.9272 18.7408V17.0571H17.1759C18.6213 17.0571 19.7972 15.8812 19.7972 14.4358V8.69616C19.7975 7.25084 18.6216 6.07491 17.1763 6.07491ZM5.94781 8.65147L3.75375 10.833C3.71562 10.8727 3.67094 10.883 3.62063 10.8621C3.59594 10.8531 3.57481 10.8364 3.56039 10.8144C3.54598 10.7925 3.53904 10.7664 3.54063 10.7402V8.94022C3.54063 8.8159 3.49124 8.69667 3.40333 8.60876C3.31542 8.52086 3.1962 8.47147 3.07188 8.47147H2.47187C2.11893 8.47106 1.78056 8.33067 1.531 8.0811C1.28143 7.83153 1.14104 7.49316 1.14062 7.14022V2.34022C1.14104 1.98728 1.28143 1.64891 1.531 1.39934C1.78056 1.14977 2.11893 1.00938 2.47187 1.00897H9.67188C10.0262 1.00897 10.3603 1.14772 10.6141 1.40147C10.7381 1.52417 10.8365 1.6704 10.9033 1.8316C10.9701 1.99281 11.004 2.16572 11.0031 2.34022V6.07491H8.56688C8.22261 6.07425 7.88163 6.14185 7.56365 6.2738C7.24568 6.40575 6.95702 6.59944 6.71438 6.84366C6.23257 7.32303 5.95744 7.97188 5.94781 8.65147ZM18.86 14.4355C18.8595 14.8819 18.6819 15.3099 18.3663 15.6256C18.0506 15.9412 17.6227 16.1188 17.1763 16.1193H16.4587C16.3344 16.1193 16.2152 16.1687 16.1273 16.2566C16.0394 16.3445 15.99 16.4637 15.99 16.588V18.7405C15.9918 18.7904 15.9781 18.8395 15.9506 18.8811C15.9232 18.9228 15.8834 18.9548 15.8369 18.9727C15.7915 18.9915 15.7413 18.9956 15.6935 18.9845C15.6456 18.9733 15.6024 18.9475 15.57 18.9105L12.9009 16.2558C12.8131 16.1685 12.6942 16.1194 12.5703 16.1193H8.56688C8.12047 16.1188 7.69249 15.9412 7.37683 15.6256C7.06117 15.3099 6.88362 14.8819 6.88312 14.4355V8.69616C6.88312 8.24741 7.05875 7.82522 7.37719 7.50678C7.53295 7.34981 7.7183 7.22528 7.92251 7.14042C8.12672 7.05556 8.34573 7.01205 8.56688 7.01241H17.1763C17.6227 7.0129 18.0506 7.19046 18.3663 7.50611C18.6819 7.82177 18.8595 8.24975 18.86 8.69616V14.4355Z" fill="white"/>
<path id="Vector_2" d="M9.96988 10.8818C9.58863 10.8818 9.27832 11.1925 9.27832 11.5734C9.27832 11.9543 9.58895 12.265 9.96988 12.265C10.3514 12.265 10.6621 11.9543 10.6621 11.5734C10.6621 11.1925 10.3514 10.8818 9.96988 10.8818ZM12.8714 10.8818C12.4902 10.8818 12.1799 11.1925 12.1799 11.5734C12.1799 11.9543 12.4905 12.265 12.8714 12.265C13.253 12.265 13.5636 11.9543 13.5636 11.5734C13.5636 11.1925 13.2533 10.8818 12.8714 10.8818ZM15.7733 10.8818C15.3921 10.8818 15.0818 11.1925 15.0818 11.5734C15.0818 11.9543 15.3924 12.265 15.7733 12.265C16.1549 12.265 16.4655 11.9543 16.4655 11.5734C16.4655 11.1925 16.1549 10.8818 15.7733 10.8818Z" fill="white"/>
</g>
</g>
<defs>
<clipPath id="clip0_5311_3018">
<rect width="20" height="20" fill="white"/>
</clipPath>
</defs>
</svg>
