<svg width="20" height="20" viewBox="0 0 20 20" fill="none" xmlns="http://www.w3.org/2000/svg">
<g id="ic:baseline-history">
<path id="Vector" d="M10.8571 2.00006C8.69752 2.00006 6.62636 2.84292 5.09927 4.34321C3.57219 5.8435 2.71429 7.87833 2.71429 10.0001H0L3.51952 13.4578L3.58286 13.5823L7.2381 10.0001H4.52381C4.52381 6.56006 7.35571 3.77784 10.8571 3.77784C14.3586 3.77784 17.1905 6.56006 17.1905 10.0001C17.1905 13.4401 14.3586 16.2223 10.8571 16.2223C9.11095 16.2223 7.52762 15.5201 6.38762 14.3912L5.10286 15.6534C5.85678 16.3984 6.75344 16.9894 7.74109 17.3922C8.72873 17.795 9.78779 18.0016 10.8571 18.0001C13.0168 18.0001 15.0879 17.1572 16.615 15.6569C18.1421 14.1566 19 12.1218 19 10.0001C19 7.87833 18.1421 5.8435 16.615 4.34321C15.0879 2.84292 13.0168 2.00006 10.8571 2.00006ZM9.95238 6.4445V10.8889L13.8248 13.1467L14.4762 12.0712L11.3095 10.2223V6.4445H9.95238Z" fill="white"/>
</g>
</svg>
