<svg width="28" height="26" viewBox="0 0 28 26" fill="none" xmlns="http://www.w3.org/2000/svg">
<path d="M23.844 20.922H23.2348C22.0222 18.8063 21.383 16.4347 21.383 14.0348V10.5117C21.383 7.62815 19.4557 5.15492 16.7345 4.1438V2.53894C16.7345 1.13889 15.5079 -0.000152588 14.0001 -0.000152588C12.4924 -0.000152588 11.2657 1.13889 11.2657 2.53894V4.1438C8.54455 5.15492 6.61723 7.6281 6.61723 10.5117V14.0348C6.61723 16.4347 5.97809 18.8062 4.76549 20.922H4.15626C3.70322 20.922 3.33594 21.263 3.33594 21.6837C3.33594 22.1044 3.70322 22.4454 4.15626 22.4454H9.42558C9.8143 24.4633 11.7169 26.0002 14.0001 26.0002C16.2834 26.0002 18.1859 24.4633 18.5747 22.4454H23.844C24.2971 22.4454 24.6643 22.1044 24.6643 21.6837C24.6643 21.263 24.2971 20.922 23.844 20.922ZM12.9064 2.53894C12.9064 1.97892 13.397 1.5233 14.0001 1.5233C14.6032 1.5233 15.0939 1.97892 15.0939 2.53894V3.7315C14.7369 3.68204 14.3717 3.65614 14.0001 3.65614C13.6285 3.65614 13.2634 3.68204 12.9064 3.7315V2.53894ZM8.25788 10.5117C8.25788 7.57158 10.8339 5.1796 14.0001 5.1796C17.1664 5.1796 19.7424 7.57158 19.7424 10.5117V14.0348C19.7424 15.1576 19.8692 16.2748 20.117 17.3673H7.88326C8.13111 16.2748 8.25788 15.1576 8.25788 14.0348V10.5117ZM7.45336 18.8907H20.5469C20.7817 19.5838 21.0665 20.2627 21.4002 20.922H6.60006C6.93382 20.2627 7.21864 19.5838 7.45336 18.8907ZM14.0001 24.4767C12.626 24.4767 11.465 23.6163 11.1069 22.4454H16.8933C16.5353 23.6163 15.3743 24.4767 14.0001 24.4767Z" fill="white"/>
<path d="M26.3203 9.22973C26 8.93225 25.4806 8.93225 25.1602 9.22973C24.8398 9.52721 24.8398 10.0095 25.1602 10.307C25.9334 11.025 26.3593 11.9814 26.3593 13.0001C26.3593 14.0188 25.9334 14.9752 25.1602 15.6932C24.8398 15.9907 24.8398 16.473 25.1602 16.7704C25.3204 16.9192 25.5303 16.9936 25.7402 16.9936C25.9501 16.9936 26.1601 16.9192 26.3202 16.7704C27.4034 15.7647 27.9999 14.4257 27.9999 13.0001C27.9999 11.5745 27.4034 10.2355 26.3203 9.22973Z" fill="white"/>
<path d="M22.8399 11.3841C22.5195 11.6816 22.5195 12.1639 22.8399 12.4614C22.9948 12.6052 23.0802 12.7965 23.0802 13C23.0802 13.2035 22.9948 13.3947 22.8399 13.5386C22.5195 13.8361 22.5195 14.3184 22.8399 14.6159C23.0001 14.7646 23.21 14.839 23.4199 14.839C23.6298 14.839 23.8398 14.7647 23.9999 14.6159C24.9595 13.7249 24.9595 12.2751 23.9999 11.3841C23.6797 11.0866 23.1602 11.0866 22.8399 11.3841Z" fill="white"/>
<path d="M2.83974 9.22965C2.51943 8.93222 2.00006 8.93217 1.67964 9.22965C0.596484 10.2354 0 11.5744 0 13C0 14.4256 0.596484 15.7646 1.67964 16.7704C1.83982 16.9191 2.04977 16.9935 2.25966 16.9935C2.46956 16.9935 2.67956 16.9191 2.83968 16.7704C3.16005 16.4729 3.16005 15.9906 2.83968 15.6931C2.0665 14.9751 1.64065 14.0187 1.64065 13C1.64065 11.9813 2.0665 11.0249 2.83974 10.3069C3.1601 10.0094 3.1601 9.52713 2.83974 9.22965Z" fill="white"/>
<path d="M4.58002 14.839C4.78997 14.839 4.99992 14.7647 5.16004 14.6159C5.48041 14.3184 5.48041 13.8361 5.16004 13.5386C5.00511 13.3948 4.91974 13.2035 4.91974 13C4.91974 12.7965 5.00511 12.6053 5.16004 12.4614C5.48041 12.1639 5.48041 11.6816 5.16004 11.3841C4.83973 11.0866 4.32031 11.0866 3.99994 11.3841C3.04038 12.2751 3.04038 13.7249 3.99994 14.6159C4.16012 14.7647 4.37007 14.839 4.58002 14.839Z" fill="white"/>
</svg>
