<svg width="21" height="20" viewBox="0 0 21 20" fill="none" xmlns="http://www.w3.org/2000/svg">
<path d="M4.97648 19.2049C4.75734 19.2049 4.53975 19.1365 4.35404 19.0023C4.18514 18.88 4.0559 18.7108 3.98241 18.5157C3.90891 18.3205 3.8944 18.1081 3.94067 17.9048L5.22735 12.2371L0.863799 8.41046C0.706864 8.27353 0.593655 8.09347 0.538257 7.8927C0.482859 7.69192 0.487718 7.47929 0.552229 7.28125C0.616344 7.08333 0.737141 6.90857 0.899643 6.77865C1.06215 6.64872 1.25921 6.56935 1.46639 6.55038L7.23986 6.02618L9.52253 0.684367C9.69078 0.291896 10.0741 0.0384521 10.5 0.0384521C10.9259 0.0384521 11.3092 0.291896 11.4775 0.683469L13.7601 6.02618L19.5327 6.5503C19.9578 6.58858 20.316 6.87624 20.4477 7.28121C20.5795 7.68623 20.4577 8.13042 20.1369 8.41042L15.7734 12.2363L17.0601 17.9039C17.1544 18.3206 16.9926 18.7516 16.6469 19.0015C16.3018 19.2514 15.8418 19.2707 15.4785 19.0523L10.5 16.0772L5.52153 19.054C5.35321 19.1539 5.16567 19.2049 4.97648 19.2049ZM10.5 14.7956C10.6892 14.7956 10.8766 14.8464 11.045 14.9464L15.7435 17.7565L14.5292 12.4071C14.4867 12.2201 14.4955 12.0251 14.5548 11.8428C14.6141 11.6604 14.7216 11.4975 14.8659 11.3713L18.9861 7.75791L13.535 7.26293C13.3432 7.24576 13.1596 7.17673 13.004 7.06324C12.8484 6.94975 12.7266 6.79607 12.6517 6.61866L10.5 1.57767L8.34571 6.6194C8.19402 6.97859 7.85648 7.22535 7.46494 7.26121L2.01313 7.75623L6.13315 11.3696C6.42824 11.628 6.5573 12.0247 6.46988 12.4063L5.25649 17.7556L9.95493 14.9464C10.1233 14.8464 10.3108 14.7956 10.5 14.7956ZM7.19576 6.12947C7.19576 6.12947 7.19576 6.13037 7.19486 6.13115L7.19576 6.12947ZM13.8026 6.12701L13.8035 6.12869C13.8035 6.12779 13.8035 6.12779 13.8025 6.12701H13.8026Z" fill="#019877"/>
</svg>
