<svg width="16" height="16" viewBox="0 0 16 16" fill="none" xmlns="http://www.w3.org/2000/svg">
<path d="M11.2359 14.5C11.0432 14.5 10.8498 14.454 10.6705 14.36L8.07858 13.0033C8.02925 12.9773 7.97052 12.9773 7.92118 13.0033L5.33117 14.3587C4.9185 14.5747 4.4279 14.5387 4.05057 14.264C3.67524 13.99 3.48989 13.536 3.56856 13.078L4.06253 10.2107C4.07186 10.1567 4.05384 10.102 4.01517 10.064L1.85452 7.96667C1.53386 7.65534 1.4199 7.19734 1.5579 6.77134C1.6959 6.34532 2.05717 6.04066 2.50117 5.976L5.48921 5.54399C5.54388 5.53599 5.59054 5.502 5.61454 5.45333L6.90985 2.84135C7.11652 2.42468 7.53392 2.16602 7.99925 2.16602C8.46458 2.16602 8.88192 2.42468 9.08858 2.84135L10.3832 5.45268C10.4078 5.50202 10.4546 5.53599 10.5093 5.54399L13.4972 5.976C13.9412 6.04 14.3025 6.34466 14.4405 6.77134C14.5785 7.19734 14.4645 7.65534 14.1439 7.96667L11.9839 10.0633C11.9439 10.102 11.9266 10.1567 11.9359 10.2107L12.4299 13.0793C12.5086 13.5367 12.3245 13.9907 11.9485 14.264C11.7365 14.4207 11.4865 14.5 11.2359 14.5ZM7.99985 11.984C8.18585 11.984 8.37252 12.028 8.54185 12.1167L11.1339 13.4733C11.2373 13.528 11.3212 13.486 11.3612 13.4567C11.4012 13.428 11.4645 13.362 11.4452 13.25L10.9512 10.3807C10.8859 10.0007 11.0125 9.614 11.2892 9.346L13.4485 7.25C13.5132 7.18734 13.5025 7.11667 13.4905 7.08067C13.4785 7.044 13.4452 6.98 13.3552 6.96667L10.3672 6.53467C9.98658 6.48 9.65792 6.24134 9.48792 5.89734L8.19385 3.28666C8.14252 3.18266 8.05052 3.16732 8.00052 3.16732C7.95052 3.16732 7.85858 3.18266 7.80725 3.28666L6.51256 5.89799C6.34323 6.24132 6.01457 6.48 5.6339 6.53467L2.64586 6.96667C2.55586 6.98 2.52186 7.04334 2.51053 7.08067C2.49853 7.11734 2.48852 7.18734 2.55252 7.25L4.71252 9.34667C4.98852 9.614 5.11517 10.0007 5.04984 10.3807L4.55586 13.248C4.53652 13.3607 4.60058 13.4267 4.64058 13.456C4.68191 13.4853 4.76318 13.5267 4.86918 13.4727L7.45918 12.1173C7.62718 12.0287 7.81385 11.984 7.99985 11.984Z" fill="#FFD700"/>
</svg>
