<svg width="21" height="21" viewBox="0 0 21 21" fill="none" xmlns="http://www.w3.org/2000/svg">
<path d="M19.1215 7.78925C19.0692 7.63498 18.9728 7.49941 18.8442 7.3993C18.7157 7.29919 18.5606 7.23892 18.3982 7.22592L13.6474 6.84842L11.5915 2.29759C11.5261 2.15101 11.4196 2.02652 11.2849 1.93914C11.1503 1.85175 10.9932 1.8052 10.8326 1.80511C10.6721 1.80503 10.515 1.8514 10.3802 1.93864C10.2455 2.02588 10.1388 2.15025 10.0732 2.29675L8.01738 6.84842L3.26655 7.22592C3.10692 7.23857 2.95433 7.29693 2.82701 7.39403C2.69969 7.49113 2.60304 7.62286 2.54862 7.77345C2.49421 7.92404 2.48433 8.08712 2.52017 8.24317C2.55601 8.39923 2.63605 8.54166 2.75071 8.65342L6.26155 12.0759L5.01988 17.4526C4.98218 17.6153 4.99426 17.7857 5.05456 17.9415C5.11486 18.0973 5.2206 18.2313 5.35805 18.3263C5.4955 18.4212 5.65831 18.4727 5.82537 18.474C5.99242 18.4752 6.156 18.4263 6.29488 18.3334L10.8324 15.3084L15.3699 18.3334C15.5118 18.4277 15.6792 18.4762 15.8496 18.4725C16.0199 18.4687 16.185 18.4129 16.3227 18.3125C16.4604 18.2121 16.564 18.072 16.6197 17.911C16.6753 17.7499 16.6804 17.5757 16.634 17.4118L15.1099 12.0784L18.8899 8.67675C19.1374 8.45342 19.2282 8.10509 19.1215 7.78925Z" fill="#019877"/>
</svg>
