<svg width="16" height="16" viewBox="0 0 16 16" fill="none" xmlns="http://www.w3.org/2000/svg">
<path d="M13.7999 6.94C14.1932 6.56 13.9732 5.88668 13.4265 5.80668L10.4399 5.37333C10.2199 5.34 10.0332 5.20667 9.93321 5.00667L8.63987 2.39999C8.51321 2.13332 8.25327 2 7.99994 2C7.74661 2 7.48654 2.13332 7.35987 2.39999L6.06658 5.00667C5.96658 5.20667 5.77991 5.34 5.55991 5.37333L2.57325 5.80668C2.02659 5.88668 1.80655 6.56 2.19988 6.94L4.36655 9.04C4.51988 9.19333 4.59323 9.41333 4.55323 9.62667L4.05991 12.5C3.97991 12.96 4.34653 13.3333 4.76653 13.3333C4.8732 13.3333 4.98653 13.3067 5.09987 13.2533L7.68654 11.8933C7.78654 11.84 7.89327 11.82 7.99994 11.82C8.10661 11.82 8.21327 11.84 8.31327 11.8933L10.8999 13.2533C11.0133 13.3067 11.1266 13.3333 11.2333 13.3333C11.6533 13.3333 12.0199 12.96 11.9399 12.5L11.4465 9.62667C11.4065 9.41333 11.4799 9.19333 11.6332 9.04L13.7999 6.94ZM10.9399 8.32C10.5465 8.70667 10.3665 9.26 10.4599 9.8L10.8532 12.0933L8.77321 11.0067C8.53321 10.88 8.26661 10.82 7.99994 10.82V3.35335L9.03987 5.45333C9.28654 5.94666 9.75321 6.28667 10.2932 6.36L12.6132 6.7L10.9399 8.32Z" fill="#FFD700"/>
</svg>
