<svg width="21" height="20" viewBox="0 0 21 20" fill="none" xmlns="http://www.w3.org/2000/svg">
<path d="M19.2691 9.41406C18.9793 5.03371 15.4663 1.5207 11.0859 1.23094V0H9.91406V1.23094C5.53371 1.5207 2.0207 5.03371 1.73094 9.41406H0.5V10.5859H1.73094C2.0207 14.9663 5.53371 18.4793 9.91406 18.7691V20H11.0859V18.7691C15.4663 18.4793 18.9793 14.9663 19.2691 10.5859H20.5V9.41406H19.2691ZM9.91406 2.40512V4.7593C7.47348 5.03035 5.53035 6.97348 5.2593 9.41406H2.90512C3.19051 5.68004 6.18004 2.69051 9.91406 2.40512ZM9.91406 17.5949C6.18004 17.3095 3.19051 14.32 2.90512 10.5859H5.2593C5.53035 13.0265 7.47348 14.9696 9.91406 15.2407V17.5949ZM9.91406 12.9297V14.0595C8.12047 13.8018 6.69816 12.3795 6.44047 10.5859H7.57031V9.41406H6.44047C6.69816 7.62047 8.12047 6.19816 9.91406 5.94047V7.07031H11.0859V5.94047C12.8795 6.19816 14.3018 7.62047 14.5595 9.41406H13.4297V10.5859H14.5595C14.3018 12.3795 12.8795 13.8018 11.0859 14.0595V12.9297H9.91406ZM11.0859 17.5949V15.2407C13.5265 14.9696 15.4696 13.0265 15.7407 10.5859H18.0949C17.8095 14.32 14.82 17.3095 11.0859 17.5949ZM15.7407 9.41406C15.4696 6.97348 13.5265 5.03035 11.0859 4.7593V2.40512C14.82 2.69051 17.8095 5.68004 18.0949 9.41406H15.7407Z" fill="#019877"/>
<path d="M10.5 8.24219C9.53074 8.24219 8.74219 9.03074 8.74219 10C8.74219 10.9693 9.53074 11.7578 10.5 11.7578C11.4693 11.7578 12.2578 10.9693 12.2578 10C12.2578 9.03074 11.4693 8.24219 10.5 8.24219Z" fill="#019877"/>
</svg>
