<svg width="21" height="20" viewBox="0 0 21 20" fill="none" xmlns="http://www.w3.org/2000/svg">
<g clip-path="url(#clip0_5311_3559)">
<path d="M7.45267 9.88089C8.20624 9.88089 8.94289 9.62044 9.56946 9.13249C10.196 8.64453 10.6844 7.95098 10.9727 7.13955C11.2611 6.32812 11.3365 5.43526 11.1894 4.57387C11.0423 3.71249 10.6794 2.92128 10.1465 2.3003C9.6136 1.67933 8.93466 1.25648 8.19555 1.08523C7.45644 0.913981 6.69036 1.00203 5.99418 1.33823C5.29801 1.67444 4.70301 2.2437 4.28444 2.97403C3.86588 3.70436 3.64253 4.56295 3.64267 5.44122C3.64373 6.61845 4.0455 7.7471 4.7598 8.57945C5.4741 9.41181 6.44258 9.87986 7.45267 9.88089ZM7.45267 2.55474C7.94251 2.55474 8.42134 2.72403 8.82863 3.0412C9.23592 3.35837 9.55336 3.80918 9.74081 4.33661C9.92826 4.86405 9.97731 5.44443 9.88175 6.00435C9.78618 6.56427 9.5503 7.07859 9.20393 7.48228C8.85757 7.88596 8.41627 8.16087 7.93584 8.27224C7.45541 8.38362 6.95744 8.32646 6.50489 8.10799C6.05234 7.88952 5.66553 7.51955 5.39339 7.04487C5.12125 6.57019 4.976 6.01212 4.976 5.44122C4.97653 4.67587 5.23763 3.94204 5.70198 3.40085C6.16633 2.85967 6.79598 2.55536 7.45267 2.55474ZM15.5 10.2694C16.0604 10.2694 16.6082 10.0757 17.0741 9.71287C17.5401 9.35002 17.9032 8.83429 18.1177 8.2309C18.3321 7.62751 18.3882 6.96355 18.2789 6.32299C18.1696 5.68244 17.8997 5.09405 17.5035 4.63223C17.1072 4.17041 16.6024 3.85591 16.0528 3.7285C15.5031 3.60108 14.9335 3.66648 14.4157 3.91641C13.898 4.16634 13.4555 4.58959 13.1442 5.13263C12.8328 5.67567 12.6667 6.31411 12.6667 6.96721C12.6675 7.84269 12.9663 8.68201 13.4975 9.30106C14.0287 9.92012 14.7488 10.2684 15.5 10.2694ZM15.5 5.21901C15.7967 5.21901 16.0867 5.32154 16.3334 5.51363C16.58 5.70573 16.7723 5.97876 16.8858 6.2982C16.9994 6.61765 17.0291 6.96915 16.9712 7.30827C16.9133 7.64739 16.7704 7.95889 16.5607 8.20338C16.3509 8.44787 16.0836 8.61437 15.7926 8.68183C15.5017 8.74928 15.2001 8.71466 14.926 8.58235C14.6519 8.45003 14.4176 8.22596 14.2528 7.93847C14.088 7.65097 14 7.31298 14 6.96721C14.0004 6.50369 14.1585 6.05926 14.4397 5.7315C14.721 5.40374 15.1023 5.21942 15.5 5.21901ZM15.5 11.1784C14.8273 11.1808 14.1619 11.341 13.5434 11.6493C12.925 11.9577 12.3661 12.4079 11.9 12.9733C10.8841 11.9892 9.64884 11.3627 8.33862 11.1671C7.02841 10.9714 5.69748 11.2146 4.50155 11.8684C3.30562 12.5221 2.29416 13.5592 1.58552 14.8584C0.876871 16.1576 0.500347 17.6652 0.5 19.2047C0.5 19.4107 0.570238 19.6084 0.695262 19.7541C0.820286 19.8998 0.989856 19.9816 1.16667 19.9816H13.74C13.9168 19.9816 14.0864 19.8998 14.2114 19.7541C14.3364 19.6084 14.4067 19.4107 14.4067 19.2047C14.4055 18.7278 14.3683 18.252 14.2953 17.7828H19.8333C20.0101 17.7828 20.1797 17.7009 20.3047 17.5552C20.4298 17.4095 20.5 17.2119 20.5 17.0058C20.4986 15.4608 19.9714 13.9795 19.034 12.8871C18.0966 11.7946 16.8256 11.1801 15.5 11.1784ZM1.87267 18.4277C2.02272 16.9382 2.60711 15.5539 3.52808 14.5065C4.44905 13.459 5.65072 12.812 6.93205 12.6735C8.21337 12.5351 9.49661 12.9138 10.5671 13.7461C11.6375 14.5784 12.4303 15.8139 12.8127 17.2459C12.9192 17.6305 12.9931 18.0263 13.0333 18.4277H1.87267ZM13.9073 16.2288C13.6465 15.4532 13.2842 14.7293 12.8333 14.0828C13.2967 13.5063 13.8883 13.0911 14.5422 12.8832C15.1961 12.6754 15.8866 12.6831 16.537 12.9056C17.1873 13.128 17.7719 13.5565 18.2257 14.1432C18.6796 14.7299 18.9847 15.4519 19.1073 16.2288H13.9073Z" fill="#019877"/>
</g>
<defs>
<clipPath id="clip0_5311_3559">
<rect width="20" height="20" fill="white" transform="translate(0.5)"/>
</clipPath>
</defs>
</svg>
